<svg version="1" xmlns="http://www.w3.org/2000/svg" width="346.667" height="346.667" viewBox="0 0 260.000000 260.000000"><path d="M105.6 1.7C93.9 5.2 87.8 13.1 86.4 26.3l-.7 6.7h4c5.4 0 14.2-4.6 17.1-8.9 2.7-4.2 5.1-11.8 5.9-18.9.7-5.9.6-5.9-7.1-3.5zM146.3 5.2c.8 7.1 3.2 14.7 5.9 18.9 2.9 4.3 11.7 8.9 17.1 8.9h4l-.7-6.7c-.9-9-4.6-16.5-10-20.2-3.6-2.5-13-6.1-15.9-6.1-.6 0-.7 2.2-.4 5.2zM44 34.4c0 7.7 7.4 20.5 14.3 24.8 4 2.5 18.2 6.6 19.2 5.6.7-.7-3.2-14.1-5.9-20.1-1.3-3-3.4-6.2-4.7-7.1-2.9-2-10.5-4.2-17.6-5.1-5.2-.7-5.3-.6-5.3 1.9zM205 33.1c-9.4 1.6-14.1 4.6-17.2 10.9-2.7 5.6-7.1 20-6.3 20.8 1 1 15.2-3.1 19.2-5.6C207.6 55 215 42.1 215 34.5c0-2.8-.7-2.9-10-1.4zM123.7 41.1c-22.4 5.5-29.4 32.1-12.4 47.6C116 93 123.4 96 129.5 96s13.5-3 18.2-7.3c15-13.7 11.4-37.6-6.7-45.6-5.6-2.4-12.4-3.2-17.3-2z"/><path d="M48.3 82.7c-2.4.2-4.3.5-4.3.7 0 1.3 4.3 12.2 6.5 16.6 9.6 19.1 24.4 32.1 41.5 36.5 7.9 2.1 22.1 2.4 31.1.6 5.4-1 7.8-1 12.5 0 8.3 1.7 23.6 1.5 31.4-.6 17.1-4.5 31.9-17.5 41.5-36.5 3.4-6.6 6.7-16.1 6-16.9-1.4-1.3-26.2-.4-32.5 1.2-21.5 5.6-39.9 22-49.5 43.9l-2.9 6.7-3.8-8.1c-10.2-21.7-27.7-37.1-48.3-42.3-6.3-1.6-22.1-2.6-29.2-1.8zM19 88.8c0 1.6.7 5.1 1.5 7.9 1.3 4.2 2.9 6.4 9.1 12.2 4.2 3.9 7.9 6.9 8.4 6.6 1.4-.9 2-8.6 1-12.6-.6-2.2-2.3-5.3-3.8-6.9-2.6-2.8-13.7-10-15.4-10-.4 0-.8 1.3-.8 2.8zM232.4 89.5c-7.4 4.4-11 8.3-12.4 13.4-1 4-.4 11.7 1 12.6.5.3 4.2-2.7 8.4-6.6 6.2-5.8 7.8-8 9.1-12.2 1.6-5.5 2-10.7.7-10.7-.5 0-3.5 1.6-6.8 3.5zM23.4 133c-6.5 3.2-19.7 13.7-18.9 15 1.1 1.8 13.5 4.3 19 3.7 5.6-.6 15.7-4.9 24.9-10.8l5-3.1-2.5-1.9c-3.7-2.9-12.5-5.9-17.3-5.9-2.7 0-6.4 1.1-10.2 3zM215.5 132.1c-2.7 1-6.1 2.8-7.4 3.8l-2.5 1.9 5 3.1c9.2 5.9 19.3 10.2 24.9 10.8 5.5.6 17.9-1.9 19-3.7.8-1.3-12.4-11.8-18.9-15-7-3.6-12.7-3.8-20.1-.9zM69.4 154.3c-2.8.8-7.1 2.5-9.5 3.9-5.5 3.3-14 12.1-16.8 17.6-2.5 4.8-2.8 4.5 8.4 8.3 5.7 1.9 9.1 2.4 18 2.4 10.7 0 11.2-.1 18.9-3.8 5.7-2.7 9.5-5.4 14-10 6.1-6.3 13.4-17.2 12.3-18.4-.3-.3-9.5-.7-20.4-.9-14.1-.3-21.3 0-24.9.9zM149.3 153.7c-2.9.2-5.3.8-5.3 1.3 0 2 10.5 16.2 14.8 20.1 2.6 2.3 8.1 5.8 12.2 7.8 7.2 3.5 7.9 3.6 18.5 3.6 8.9 0 12.3-.5 18-2.4 11.2-3.8 10.9-3.5 8.4-8.3-2.8-5.5-11.3-14.3-16.7-17.6-6.9-4-14.1-5.2-30.2-5-8 .1-16.9.3-19.7.5zM125.3 166.1c-17.6 23.6-19.6 50.1-5.6 73.8 2.1 3.5 5.2 7.9 6.9 9.9l3 3.5 3-3.6c18.3-22.9 20.9-51.5 6.9-75.2-2-3.3-5.1-7.8-6.9-9.9l-3.3-4-4 5.5zM12 170.4c0 6.5 3.3 25.6 5.1 29.3 2.2 4.5 8.9 10.3 14.1 12.2 2.5.9 2.7.7 3.7-3.4 3.4-13.4-.6-25.6-10.7-32.9-5.8-4.3-12.2-7-12.2-5.2zM241.5 171.6c-14.7 6.9-21.1 20.1-17.6 36 1.2 5.1 1.3 5.2 3.9 4.3 5.2-1.9 11.9-7.7 14.1-12.2 1.9-4 5.8-27.3 4.9-29.7-.2-.5-2.6.2-5.3 1.6zM74.6 199.5c-11.2 4.6-17 11.7-18.3 22.3-.6 5-.5 5.2 1.9 5.2 4.1 0 11.7-2.7 15.9-5.5 5.3-3.8 8.9-11.2 8.9-18.7 0-6.7-.1-6.8-8.4-3.3zM176 202.7c0 11.2 6.4 19.5 17.6 22.9 7.4 2.2 9.4 1.9 9.4-1.4 0-4.9-2.8-12.5-6-16.4-3-3.6-12.5-9-18.2-10.4l-2.8-.6v5.9zM88.4 229.6c-.8 2-1.8 5.7-2.1 8.3-.7 6.1 3.4 14.2 9.7 18.9l4.4 3.4 1.7-3.4c3-5.5 3.4-11 1.1-15.9-1.9-4.5-10.6-14.9-12.3-14.9-.6 0-1.7 1.6-2.5 3.6zM162.5 231.2c-8.6 9.5-10.3 16.9-5.6 25.6l1.7 3.3 4.1-3c5.1-3.7 9.4-10.8 9.9-16.4.4-4.5-2.3-13.8-4.2-14.4-.6-.2-3.3 2-5.9 4.9z"/></svg>